#N canvas 187 23 1266 911 10;
#N canvas 0 22 450 300 (subpatch) 0;
#X array table-1 6.90659e+06 float 2;
#X coords 0 1 6.90659e+06 -1 100 40 1 0 0;
#X restore 135 232 graph;
#X obj 135 331 soundfiler;
#X obj 135 281 loadbang;
#X obj 135 356 s sampleLength1;
#X obj 132 599 catch~ output;
#X obj 135 500 throw~ output;
#X obj 135 445 tabplay~ table-1;
#X msg 135 420 bang;
#X obj 226 480 bng 15 250 50 0 empty empty empty 17 7 0 10 -262144
-1 -1;
#X obj 253 256 adc~ 3;
#X obj 135 470 *~;
#X obj 135 395 loadbang;
#N canvas 0 22 450 300 (subpatch) 0;
#X array table-2 1.67782e+06 float 2;
#X coords 0 1 1.67782e+06 -1 100 40 1 0 0;
#X restore 446 229 graph;
#X obj 446 328 soundfiler;
#X obj 446 278 loadbang;
#X obj 446 353 s sampleLength1;
#N canvas 0 22 450 300 (subpatch) 0;
#X array table-3 6.272e+06 float 2;
#X coords 0 1 6.272e+06 -1 100 40 1 0 0;
#X restore 766 229 graph;
#X obj 766 328 soundfiler;
#X obj 766 278 loadbang;
#X obj 766 353 s sampleLength1;
#X obj 446 490 throw~ output;
#X msg 446 415 bang;
#X obj 539 465 bng 15 250 50 0 empty empty empty 17 7 0 10 -262144
-1 -1;
#X obj 446 465 *~;
#X obj 446 390 loadbang;
#X obj 766 490 throw~ output;
#X msg 766 415 bang;
#X obj 859 465 bng 15 250 50 0 empty empty empty 17 7 0 10 -262144
-1 -1;
#X obj 766 465 *~;
#X obj 766 390 loadbang;
#X obj 578 254 adc~ 4;
#X obj 898 254 adc~ 5;
#X obj 446 440 tabplay~ table-2;
#X obj 766 440 tabplay~ table-3;
#X msg 766 303 read -resize background3.aif table-3;
#X text 43 43 DIWO |;
#X text 131 43 BACKGROUND TRACKS FSRs on Analog Inputs 3(A0) \, 4(A1)
\, 5(A2) \, and 6(A3) control the volume or mix of these three background
tracks;
#X msg 446 303 read -resize background5.aif table-2;
#X msg 135 306 read -resize background6.aif table-1;
#X obj 770 39 loadbang;
#X obj 708 137 s bela_setDigital;
#X obj 895 456 tgl 15 0 empty empty empty 17 7 0 10 -262144 -1 -1 0
1;
#X obj 896 391 snapshot~;
#X obj 132 672 dac~ 1 2;
#X msg 708 70 out 17;
#X obj 835 69 tgl 15 0 empty empty empty 17 7 0 10 -262144 -1 -1 0
1;
#X msg 716 91 out 18;
#X msg 724 112 out 19;
#X obj 579 464 tgl 15 0 empty empty empty 17 7 0 10 -262144 -1 -1 0
1;
#X obj 578 400 snapshot~;
#X obj 253 465 tgl 15 0 empty empty empty 17 7 0 10 -262144 -1 -1 0
1;
#X obj 253 408 snapshot~;
#X obj 253 510 s bela_digitalOut17;
#X obj 253 438 > 0.05;
#X obj 577 429 > 0.05;
#X obj 897 421 > 0.05;
#X obj 579 510 s bela_digitalOut18;
#X obj 897 510 s bela_digitalOut19;
#X obj 835 137 s snapshot;
#X obj 265 376 r snapshot;
#X obj 602 366 r snapshot;
#X obj 926 357 r snapshot;
#X obj 835 101 metro 20;
#X connect 1 0 3 0;
#X connect 2 0 38 0;
#X connect 4 0 43 0;
#X connect 4 0 43 1;
#X connect 6 0 10 0;
#X connect 6 1 8 0;
#X connect 7 0 6 0;
#X connect 8 0 7 0;
#X connect 9 0 10 1;
#X connect 9 0 51 0;
#X connect 10 0 5 0;
#X connect 11 0 7 0;
#X connect 13 0 15 0;
#X connect 14 0 37 0;
#X connect 17 0 19 0;
#X connect 18 0 34 0;
#X connect 21 0 32 0;
#X connect 22 0 21 0;
#X connect 23 0 20 0;
#X connect 24 0 21 0;
#X connect 26 0 33 0;
#X connect 27 0 26 0;
#X connect 28 0 25 0;
#X connect 29 0 26 0;
#X connect 30 0 23 1;
#X connect 30 0 49 0;
#X connect 31 0 28 1;
#X connect 31 0 42 0;
#X connect 32 0 23 0;
#X connect 32 1 22 0;
#X connect 33 0 28 0;
#X connect 33 1 27 0;
#X connect 34 0 17 0;
#X connect 37 0 13 0;
#X connect 38 0 1 0;
#X connect 39 0 44 0;
#X connect 39 0 45 0;
#X connect 39 0 46 0;
#X connect 39 0 47 0;
#X connect 41 0 57 0;
#X connect 42 0 55 0;
#X connect 44 0 40 0;
#X connect 45 0 62 0;
#X connect 46 0 40 0;
#X connect 47 0 40 0;
#X connect 48 0 56 0;
#X connect 49 0 54 0;
#X connect 50 0 52 0;
#X connect 51 0 53 0;
#X connect 53 0 50 0;
#X connect 54 0 48 0;
#X connect 55 0 41 0;
#X connect 59 0 51 0;
#X connect 60 0 49 0;
#X connect 61 0 42 0;
#X connect 62 0 58 0;
